<?xml version="1.0" encoding="utf-8"?>
<!-- Generator: Adobe Illustrator 24.1.2, SVG Export Plug-In . SVG Version: 6.00 Build 0)  -->
<svg version="1.1" id="Layer_1" xmlns="http://www.w3.org/2000/svg" xmlns:xlink="http://www.w3.org/1999/xlink" x="0px" y="0px"
	 viewBox="0 0 170.4 116.7" style="enable-background:new 0 0 170.4 116.7;" xml:space="preserve">
<style type="text/css">
	.st0{fill:#00859B;}
	.st1{fill:#00C689;}
	.st2{fill:#00ED65;}
	.st3{fill:#FFFFFF;}
	.st4{font-family:'Montserrat-SemiBold';}
	.st5{font-size:29.8368px;}
</style>
<g>
	<g>
		<g>
			<path class="st0" d="M86.2,12.2l-5,5L102.1,38c3,3,7.9,3.6,11.2,0.9c3.8-3.1,4-8.7,0.6-12.1L99.4,12.2
				C95.8,8.6,89.9,8.6,86.2,12.2z"/>
			<path class="st1" d="M102.4,38.3L81.3,17.2L72.5,26c-3.6,3.6-3.6,9.5,0,13.2L87,53.7c3.2,3.2,3.2,8.4,0,11.5l5.8-5.8l15.4-15.4
				l5.8-5.8C110.8,41.5,105.6,41.5,102.4,38.3z"/>
		</g>
		<path class="st2" d="M63.1,12.2L49.4,26c-3.6,3.6-3.6,9.5,0,13.2L75.2,65c3,3,7.9,3.6,11.2,0.9c3.8-3.1,4-8.7,0.6-12.1L72.5,39.2
			c-3.6-3.6-3.6-9.5,0-13.2l8.8-8.8l-5-5C72.7,8.6,66.8,8.6,63.1,12.2z M57.6,35.5c-1.3,1.3-3.5,1.3-4.9,0c-1.3-1.3-1.3-3.5,0-4.9
			c1.3-1.3,3.5-1.3,4.9,0C58.9,32,58.9,34.2,57.6,35.5z"/>
	</g>
	<g>
		<text transform="matrix(1 0 0 1 7.1497 101.6012)" class="st3 st4 st5">My Money</text>
	</g>
</g>
</svg>
